<?xml version="1.0" encoding="UTF-8" standalone="no"?>
<!-- Created with Inkscape (http://www.inkscape.org/) -->

<svg
   width="512"
   height="512"
   viewBox="0 0 512 512"
   version="1.1"
   id="svg5"
   xml:space="preserve"
   inkscape:version="1.2.1 (9c6d41e410, 2022-07-14, custom)"
   sodipodi:docname="logo.svg"
   xmlns:inkscape="http://www.inkscape.org/namespaces/inkscape"
   xmlns:sodipodi="http://sodipodi.sourceforge.net/DTD/sodipodi-0.dtd"
   xmlns="http://www.w3.org/2000/svg"
   xmlns:svg="http://www.w3.org/2000/svg"><sodipodi:namedview
     id="namedview7"
     pagecolor="#ffffff"
     bordercolor="#999999"
     borderopacity="1"
     inkscape:showpageshadow="0"
     inkscape:pageopacity="0"
     inkscape:pagecheckerboard="0"
     inkscape:deskcolor="#d1d1d1"
     inkscape:document-units="px"
     showgrid="false"
     inkscape:zoom="0.83789063"
     inkscape:cx="355.05827"
     inkscape:cy="247.64569"
     inkscape:window-width="1920"
     inkscape:window-height="1011"
     inkscape:window-x="0"
     inkscape:window-y="0"
     inkscape:window-maximized="1"
     inkscape:current-layer="layer1" /><defs
     id="defs2"><filter
       inkscape:collect="always"
       style="color-interpolation-filters:sRGB"
       id="filter890"
       x="-0.032797516"
       y="-0.02889"
       width="1.065595"
       height="1.05778"><feGaussianBlur
         inkscape:collect="always"
         stdDeviation="6.1632"
         id="feGaussianBlur892" /></filter></defs><g
     inkscape:label="Ebene 1"
     inkscape:groupmode="layer"
     id="layer1"
     style="display:inline"><g
       id="g210"
       transform="matrix(0.66518847,0,0,0.66518847,41.083601,61.039255)"
       style="display:inline;opacity:1;mix-blend-mode:normal;filter:url(#filter890)"><path
         fill="#e34f26"
         d="M 71,460 30,0 h 451 l -41,460 -185,52"
         id="path192" /><path
         fill="#ef652a"
         d="M 256,472 405,431 440,37 H 256"
         id="path194" /><path
         fill="#ebebeb"
         d="m 256,208 h -75 l -5,-58 h 80 V 94 h -1 -141 l 1,15 14,156 h 127 z m 0,147 h -1 l -63,-17 -4,-45 h -30 -26 l 7,89 116,32 h 1 z"
         id="path196" /><path
         fill="#ffffff"
         d="m 255,208 v 57 h 70 l -7,73 -63,17 v 59 l 116,-32 1,-10 13,-149 2,-15 h -16 z m 0,-114 v 35 21 0 h 137 v 0 0 l 1,-12 3,-29 1,-15 z"
         id="path198" /></g><g
       id="g888"
       transform="matrix(3.2190938,0,0,3.2190895,138.57832,74.509236)"
       style="opacity:0.84"><path
         d="M 94.1566,22.8189 C 83.7566,7.9338 63.2166,3.5218 48.3652,12.9841 L 22.2825,29.6078 A 29.9234,29.9234 0 0 0 8.7639,49.6506 31.5136,31.5136 0 0 0 11.8715,69.8824 30.0061,30.0061 0 0 0 7.3953,81.0653 31.8886,31.8886 0 0 0 12.8426,105.181 c 10.4022,14.8865 30.9423,19.2966 45.7914,9.8348 L 84.7167,98.3921 A 29.9177,29.9177 0 0 0 98.2353,78.3493 31.5263,31.5263 0 0 0 95.13,58.117 30,30 0 0 0 99.6043,46.9346 31.88,31.88 0 0 0 94.157,22.8189"
         style="fill:#ff3e00"
         id="path876" /><path
         d="M 45.8171,106.5815 A 20.7182,20.7182 0 0 1 23.58,98.3389 19.1739,19.1739 0 0 1 20.3034,83.8364 18.1886,18.1886 0 0 1 20.9267,81.4007 l 0.4912,-1.4978 1.3363,0.9815 a 33.6443,33.6443 0 0 0 10.203,5.0978 l 0.9694,0.2941 -0.0893,0.9675 a 5.8474,5.8474 0 0 0 1.052,3.8781 6.2389,6.2389 0 0 0 6.6952,2.485 5.7449,5.7449 0 0 0 1.6021,-0.7041 L 69.27,76.281 a 5.4306,5.4306 0 0 0 2.4506,-3.631 5.7948,5.7948 0 0 0 -0.9875,-4.3712 6.2436,6.2436 0 0 0 -6.6978,-2.4864 5.7427,5.7427 0 0 0 -1.6,0.7036 l -9.9532,6.3449 a 19.0329,19.0329 0 0 1 -5.2965,2.3259 20.7181,20.7181 0 0 1 -22.2368,-8.2427 19.1725,19.1725 0 0 1 -3.2766,-14.5024 17.9885,17.9885 0 0 1 8.13,-12.0513 L 55.8833,23.7472 a 19.0038,19.0038 0 0 1 5.3,-2.3287 20.7182,20.7182 0 0 1 22.2367,8.2426 19.1739,19.1739 0 0 1 3.2766,14.5025 18.4,18.4 0 0 1 -0.6233,2.4357 l -0.4912,1.4978 -1.3356,-0.98 a 33.6175,33.6175 0 0 0 -10.2037,-5.1 l -0.9694,-0.2942 0.0893,-0.9675 a 5.8588,5.8588 0 0 0 -1.052,-3.878 6.2389,6.2389 0 0 0 -6.6952,-2.485 5.7449,5.7449 0 0 0 -1.6021,0.7041 L 37.73,51.719 a 5.4218,5.4218 0 0 0 -2.4487,3.63 5.7862,5.7862 0 0 0 0.9856,4.3717 6.2437,6.2437 0 0 0 6.6978,2.4864 5.7652,5.7652 0 0 0 1.602,-0.7041 l 9.9519,-6.3425 a 18.978,18.978 0 0 1 5.2959,-2.3278 20.7181,20.7181 0 0 1 22.2368,8.2427 19.1725,19.1725 0 0 1 3.2766,14.5024 17.9977,17.9977 0 0 1 -8.13,12.0532 l -26.0812,16.6218 a 19.0038,19.0038 0 0 1 -5.3,2.3287"
         style="fill:#ffffff"
         id="path878" /></g></g></svg>
